<svg xmlns="http://www.w3.org/2000/svg" version="1.1" viewBox="0 0 32 32">
    <path d="M27.090 0.131h-22.731c-2.354 0-4.262 1.839-4.262 4.109v16.401c0 2.269 1.908 4.109 4.262 4.109h4.262v-2.706h8.469l-8.853 8.135 1.579 1.451 7.487-6.88h9.787c2.353 0 4.262-1.84 4.262-4.109v-16.401c0-2.27-1.909-4.109-4.262-4.109v0zM28.511 19.304c0 1.512-1.272 2.738-2.841 2.738h-8.425l-0.076-0.070-0.076 0.070h-11.311c-1.569 0-2.841-1.226-2.841-2.738v-13.696c0-1.513 1.272-2.739 2.841-2.739h19.889c1.569 0 2.841-0.142 2.841 1.37v15.064z"></path>
</svg>