<svg xmlns="http://www.w3.org/2000/svg" version="1.1" viewBox="0 0 32 32">
    <path d="M27.128 0.38h-22.553c-2.336 0-4.229 1.825-4.229 4.076v16.273c0 2.251 1.893 4.076 4.229 4.076h4.229v-2.685h8.403l-8.784 8.072 1.566 1.44 7.429-6.827h9.71c2.335 0 4.229-1.825 4.229-4.076v-16.273c0-2.252-1.894-4.076-4.229-4.076zM28.538 19.403c0 1.5-1.262 2.717-2.819 2.717h-8.36l-0.076-0.070-0.076 0.070h-11.223c-1.557 0-2.819-1.217-2.819-2.717v-13.589c0-1.501 1.262-2.718 2.819-2.718h19.734c1.557 0 2.819-0.141 2.819 1.359v14.947zM9.206 10.557c-1.222 0-2.215 0.911-2.215 2.036s0.992 2.035 2.215 2.035c1.224 0 2.216-0.911 2.216-2.035s-0.992-2.036-2.216-2.036zM22.496 10.557c-1.224 0-2.215 0.911-2.215 2.036s0.991 2.035 2.215 2.035c1.224 0 2.215-0.911 2.215-2.035s-0.991-2.036-2.215-2.036zM15.852 10.557c-1.224 0-2.215 0.911-2.215 2.036s0.991 2.035 2.215 2.035c1.222 0 2.215-0.911 2.215-2.035s-0.992-2.036-2.215-2.036z"></path>
</svg>