<svg xmlns="http://www.w3.org/2000/svg" version="1.1" viewBox="0 0 32 33">
    <path d="M24.965 24.38h-18.132c-1.366 0-2.478-1.113-2.478-2.478v-11.806c0-1.364 1.111-2.478 2.478-2.478h18.132c1.366 0 2.478 1.113 2.478 2.478v11.806c0 1.364-1.11 2.478-2.478 2.478zM6.833 10.097v11.806h18.134l-0.002-11.806h-18.132zM2.478 28.928h5.952c0.684 0 1.238-0.554 1.238-1.239 0-0.684-0.554-1.238-1.238-1.238h-5.952v-5.802c0-0.684-0.554-1.239-1.238-1.239s-1.239 0.556-1.239 1.239v5.802c0 1.365 1.111 2.478 2.478 2.478zM30.761 19.412c-0.684 0-1.238 0.554-1.238 1.238v5.801h-5.951c-0.686 0-1.239 0.554-1.239 1.238 0 0.686 0.554 1.239 1.239 1.239h5.951c1.366 0 2.478-1.111 2.478-2.478v-5.801c0-0.683-0.554-1.238-1.239-1.238zM0 5.55v5.802c0 0.683 0.554 1.238 1.238 1.238s1.238-0.555 1.238-1.238v-5.802h5.952c0.684 0 1.238-0.554 1.238-1.238s-0.554-1.238-1.238-1.238h-5.951c-1.366-0.001-2.478 1.111-2.478 2.476zM32 11.35v-5.801c0-1.365-1.11-2.478-2.478-2.478h-5.951c-0.686 0-1.239 0.554-1.239 1.238s0.554 1.238 1.239 1.238h5.951v5.801c0 0.683 0.554 1.237 1.238 1.237 0.686 0.002 1.239-0.553 1.239-1.236z"></path>
</svg>