<svg xmlns="http://www.w3.org/2000/svg" version="1.1" viewBox="0 0 32 33">
    <path d="M6.667 28h-5.333c-0.8 0-1.333-0.533-1.333-1.333v-5.333c0-0.8 0.533-1.333 1.333-1.333s1.333 0.533 1.333 1.333v4h4c0.8 0 1.333 0.533 1.333 1.333s-0.533 1.333-1.333 1.333zM30.667 28h-5.333c-0.8 0-1.333-0.533-1.333-1.333s0.533-1.333 1.333-1.333h4v-4c0-0.8 0.533-1.333 1.333-1.333s1.333 0.533 1.333 1.333v5.333c0 0.8-0.533 1.333-1.333 1.333zM30.667 12c-0.8 0-1.333-0.533-1.333-1.333v-4h-4c-0.8 0-1.333-0.533-1.333-1.333s0.533-1.333 1.333-1.333h5.333c0.8 0 1.333 0.533 1.333 1.333v5.333c0 0.8-0.533 1.333-1.333 1.333zM1.333 12c-0.8 0-1.333-0.533-1.333-1.333v-5.333c0-0.8 0.533-1.333 1.333-1.333h5.333c0.8 0 1.333 0.533 1.333 1.333s-0.533 1.333-1.333 1.333h-4v4c0 0.8-0.533 1.333-1.333 1.333z"></path>
</svg>