<svg width="800px" height="800px" viewBox="0 0 24 24" fill="none" xmlns="http://www.w3.org/2000/svg">
<path fill-rule="evenodd" clip-rule="evenodd" d="M7 9C7 6.23858 9.23858 4 12 4C14.7614 4 17 6.23858 17 9V11.1707C18.1652 11.5825 19 12.6938 19 14V18C19 19.6569 17.6569 21 16 21H8C6.34315 21 5 19.6569 5 18V14C5 12.6938 5.83481 11.5825 7 11.1707V9ZM9 11H15V9C15 7.34315 13.6569 6 12 6C10.3431 6 9 7.34315 9 9V11ZM8 13C7.44772 13 7 13.4477 7 14V18C7 18.5523 7.44772 19 8 19H16C16.5523 19 17 18.5523 17 18V14C17 13.4477 16.5523 13 16 13H8Z" fill="#000000"/>
</svg>