<svg xmlns="http://www.w3.org/2000/svg" version="1.1" viewBox="0 0 32 28">
    <path d="M28.633 17.104c0.035 0.21 0.026 0.463-0.026 0.76s-0.14 0.598-0.262 0.904c-0.122 0.306-0.271 0.581-0.445 0.825s-0.367 0.419-0.576 0.524c-0.209 0.105-0.393 0.157-0.55 0.157s-0.332-0.035-0.524-0.105c-0.175-0.052-0.393-0.1-0.655-0.144s-0.528-0.052-0.799-0.026c-0.271 0.026-0.541 0.083-0.812 0.17s-0.502 0.236-0.694 0.445c-0.419 0.437-0.664 0.934-0.734 1.493s0.009 1.092 0.236 1.598c0.175 0.349 0.148 0.699-0.079 1.048-0.105 0.14-0.271 0.284-0.498 0.432s-0.476 0.284-0.747 0.406-0.555 0.218-0.851 0.288c-0.297 0.070-0.559 0.105-0.786 0.105-0.157 0-0.306-0.061-0.445-0.183s-0.236-0.253-0.288-0.393h-0.026c-0.192-0.541-0.52-1.009-0.982-1.402s-1-0.589-1.611-0.589c-0.594 0-1.131 0.197-1.611 0.589s-0.816 0.851-1.009 1.375c-0.087 0.21-0.218 0.362-0.393 0.458s-0.367 0.144-0.576 0.144c-0.244 0-0.52-0.044-0.825-0.131s-0.611-0.197-0.917-0.327c-0.306-0.131-0.581-0.284-0.825-0.458s-0.428-0.349-0.55-0.524c-0.087-0.122-0.135-0.266-0.144-0.432s0.057-0.397 0.197-0.694c0.192-0.402 0.266-0.86 0.223-1.375s-0.266-0.991-0.668-1.428c-0.244-0.262-0.541-0.432-0.891-0.511s-0.681-0.109-0.995-0.092c-0.367 0.017-0.742 0.087-1.127 0.21-0.244 0.070-0.489 0.052-0.734-0.052-0.192-0.070-0.371-0.231-0.537-0.485s-0.314-0.533-0.445-0.838c-0.131-0.306-0.231-0.62-0.301-0.943s-0.087-0.59-0.052-0.799c0.052-0.384 0.227-0.629 0.524-0.734 0.524-0.21 0.995-0.555 1.415-1.035s0.629-1.017 0.629-1.611c0-0.611-0.21-1.144-0.629-1.598s-0.891-0.786-1.415-0.996c-0.157-0.052-0.288-0.179-0.393-0.38s-0.157-0.406-0.157-0.616c0-0.227 0.035-0.48 0.105-0.76s0.162-0.55 0.275-0.812 0.244-0.502 0.393-0.72c0.148-0.218 0.31-0.38 0.485-0.485 0.14-0.087 0.275-0.122 0.406-0.105s0.275 0.052 0.432 0.105c0.524 0.21 1.070 0.275 1.637 0.197s1.070-0.327 1.506-0.747c0.21-0.209 0.362-0.467 0.458-0.773s0.157-0.607 0.183-0.904c0.026-0.297 0.026-0.568 0-0.812s-0.048-0.419-0.065-0.524c-0.035-0.105-0.066-0.227-0.092-0.367s-0.013-0.262 0.039-0.367c0.105-0.244 0.293-0.458 0.563-0.642s0.563-0.336 0.878-0.458c0.314-0.122 0.62-0.214 0.917-0.275s0.533-0.092 0.707-0.092c0.227 0 0.406 0.074 0.537 0.223s0.223 0.301 0.275 0.458c0.192 0.471 0.507 0.886 0.943 1.244s0.952 0.537 1.546 0.537c0.611 0 1.153-0.17 1.624-0.511s0.803-0.773 0.996-1.297c0.070-0.14 0.179-0.284 0.327-0.432s0.301-0.223 0.458-0.223c0.244 0 0.511 0.035 0.799 0.105s0.572 0.166 0.851 0.288c0.279 0.122 0.537 0.279 0.773 0.472s0.423 0.402 0.563 0.629c0.087 0.14 0.113 0.293 0.079 0.458s-0.070 0.284-0.105 0.354c-0.227 0.506-0.297 1.039-0.21 1.598s0.341 1.048 0.76 1.467c0.419 0.419 0.934 0.651 1.546 0.694s1.179-0.057 1.703-0.301c0.14-0.087 0.31-0.122 0.511-0.105s0.371 0.096 0.511 0.236c0.262 0.244 0.493 0.616 0.694 1.113s0.336 1 0.406 1.506c0.035 0.297-0.013 0.528-0.144 0.694s-0.266 0.275-0.406 0.327c-0.542 0.192-1.004 0.528-1.388 1.009s-0.576 1.026-0.576 1.637c0 0.594 0.162 1.113 0.485 1.559s0.747 0.764 1.27 0.956c0.122 0.070 0.227 0.14 0.314 0.21 0.192 0.157 0.323 0.358 0.393 0.602v0zM16.451 19.462c0.786 0 1.528-0.149 2.227-0.445s1.305-0.707 1.821-1.231c0.515-0.524 0.921-1.131 1.218-1.821s0.445-1.428 0.445-2.214c0-0.786-0.148-1.524-0.445-2.214s-0.703-1.292-1.218-1.808c-0.515-0.515-1.122-0.921-1.821-1.218s-1.441-0.445-2.227-0.445c-0.786 0-1.524 0.148-2.214 0.445s-1.292 0.703-1.808 1.218c-0.515 0.515-0.921 1.118-1.218 1.808s-0.445 1.428-0.445 2.214c0 0.786 0.149 1.524 0.445 2.214s0.703 1.297 1.218 1.821c0.515 0.524 1.118 0.934 1.808 1.231s1.428 0.445 2.214 0.445v0z"></path>
</svg>