<svg xmlns="http://www.w3.org/2000/svg" version="1.1" viewBox="0 0 21 32">
    <path d="M13.728 6.272v19.456q0 0.448-0.352 0.8t-0.8 0.32-0.8-0.32l-5.952-5.952h-4.672q-0.48 0-0.8-0.352t-0.352-0.8v-6.848q0-0.48 0.352-0.8t0.8-0.352h4.672l5.952-5.952q0.32-0.32 0.8-0.32t0.8 0.32 0.352 0.8zM20.576 16q0 1.344-0.768 2.528t-2.016 1.664q-0.16 0.096-0.448 0.096-0.448 0-0.8-0.32t-0.32-0.832q0-0.384 0.192-0.64t0.544-0.448 0.608-0.384 0.512-0.64 0.192-1.024-0.192-1.024-0.512-0.64-0.608-0.384-0.544-0.448-0.192-0.64q0-0.48 0.32-0.832t0.8-0.32q0.288 0 0.448 0.096 1.248 0.48 2.016 1.664t0.768 2.528z"></path>
</svg>